<svg width="65" height="65" stroke="#2B8161" viewBox="0 0 65 65" fill="none" xmlns="http://www.w3.org/2000/svg">
<path d="M52.341 15.648C54.1667 18.3804 54.1667 22.1841 54.1667 29.7916C54.1667 37.3991 54.1667 41.2029 52.341 43.9353C51.5506 45.1182 50.5349 46.1338 49.352 46.9242C46.9651 48.5192 43.7605 48.7208 37.9167 48.7463V48.75L34.9224 54.7385C33.9244 56.7347 31.0757 56.7347 30.0776 54.7385L27.0834 48.75V48.7463C21.2396 48.7208 18.035 48.5192 15.648 46.9242C14.4651 46.1338 13.4495 45.1182 12.6591 43.9353C10.8334 41.2029 10.8334 37.3991 10.8334 29.7916C10.8334 22.1841 10.8334 18.3804 12.6591 15.648C13.4495 14.4651 14.4651 13.4494 15.648 12.6591C18.3805 10.8333 22.1842 10.8333 29.7917 10.8333H35.2084C42.8159 10.8333 46.6196 10.8333 49.352 12.6591C50.5349 13.4494 51.5506 14.4651 52.341 15.648Z" stroke-width="2" stroke-linecap="round" stroke-linejoin="round"/>
<path d="M24.375 24.375L40.625 24.375" stroke-linecap="round" stroke-linejoin="round"/>
<path d="M24.375 35.2083H32.5" stroke-linecap="round" stroke-linejoin="round"/>
</svg>
